<?xml version="1.0" standalone="no"?>
<!DOCTYPE svg PUBLIC "-//W3C//DTD SVG 20010904//EN"
 "http://www.w3.org/TR/2001/REC-SVG-20010904/DTD/svg10.dtd">
<svg version="1.0" xmlns="http://www.w3.org/2000/svg"
 width="400.000000pt" height="400.000000pt" viewBox="0 0 400.000000 400.000000"
 preserveAspectRatio="xMidYMid meet">
<metadata>
Created by potrace 1.14, written by Peter Selinger 2001-2017
</metadata>
<g transform="translate(0.000000,400.000000) scale(0.100000,-0.100000)"
fill="#000000" stroke="none">
<path d="M1515 3900 c-22 -4 -62 -10 -90 -14 -27 -4 -70 -11 -95 -16 -49 -10
-142 -26 -205 -35 -22 -4 -76 -13 -120 -20 -44 -8 -96 -17 -115 -20 -19 -3
-46 -7 -60 -10 -14 -3 -38 -7 -55 -9 -238 -39 -453 -79 -473 -89 -55 -26 -64
-53 -69 -201 -4 -126 -3 -136 14 -136 10 -1 122 -1 248 -2 284 -1 352 -14 426
-80 39 -35 61 -73 73 -131 9 -38 12 -381 11 -1292 l-1 -1240 -129 -190 c-71
-104 -151 -221 -177 -259 -26 -39 -44 -72 -39 -75 7 -5 1226 -6 1264 -2 12 2
8 16 -10 37 -10 11 -89 126 -177 256 l-158 236 -1 366 c0 210 4 370 9 374 18
16 179 157 184 162 3 3 55 49 116 102 l110 97 82 -117 c44 -64 129 -186 189
-269 101 -143 415 -587 476 -674 15 -22 27 -44 27 -50 0 -5 -65 -123 -145
-260 -80 -138 -143 -254 -141 -257 5 -9 1284 -7 1292 1 10 9 -295 460 -654
967 -138 195 -256 362 -262 370 -6 8 -108 152 -227 320 -118 168 -217 310
-219 315 -3 7 95 10 298 10 l303 0 0 268 c0 171 4 267 10 268 6 0 127 1 270 2
l260 2 0 145 0 145 -503 1 -503 1 -182 -159 c-100 -88 -198 -174 -217 -192
-19 -17 -147 -130 -285 -250 -137 -121 -259 -227 -270 -237 -20 -18 -20 -17
-19 917 1 685 -2 934 -10 933 -6 -1 -29 -5 -51 -9z"/>
</g>
</svg>
