<?xml version="1.0" encoding="UTF-8"?><svg xmlns="http://www.w3.org/2000/svg" viewBox="0 0 1232.04 73.91"><defs><style>.d{fill:#fef8f0;}.e{stroke-width:1.59px;}.e,.f{fill:none;stroke:#fef8f0;stroke-miterlimit:10;}.f{stroke-width:1.99px;}</style></defs><g id="a"/><g id="b"><g id="c"><g><line class="e" x1="26.1" y1="36.95" x2="1205.95" y2="36.95"/><g><circle class="f" cx="917.42" cy="36.95" r="35.96"/><path class="d" d="M887.92,36.95c0,16.27,13.23,29.5,29.5,29.5,16.27,0,29.5-13.23,29.5-29.5h-59Z"/></g><g><circle class="f" cx="626.37" cy="36.95" r="35.96"/><path class="d" d="M655.87,36.95c0-16.27-13.23-29.5-29.5-29.5s-29.5,13.23-29.5,29.5h59Z"/><path class="d" d="M596.87,36.95c0,16.27,13.23,29.5,29.5,29.5s29.5-13.23,29.5-29.5h-59Z"/></g><g><circle class="f" cx="326.41" cy="36.95" r="35.96"/><path class="d" d="M355.91,36.78c-.1-16.27-13.41-29.42-29.67-29.33-16.27,.1-29.42,13.41-29.33,29.67l59-.35Z"/></g><circle class="e" cx="1218.6" cy="36.95" r="12.65"/><circle class="e" cx="13.45" cy="36.95" r="12.65"/></g></g></g></svg>