<svg id="Group_339" data-name="Group 339" xmlns="http://www.w3.org/2000/svg" xmlns:xlink="http://www.w3.org/1999/xlink" width="412.976" height="240.719" viewBox="0 0 412.976 240.719">
  <defs>
    <clipPath id="clip-path">
      <rect id="Rectangle_252" data-name="Rectangle 252" width="412.976" height="240.719" fill="none"/>
    </clipPath>
  </defs>
  <path id="Path_250" data-name="Path 250" d="M122.8,145.661l-14.941-50.12,4.352-13.788L84.489,90.015l11.152,9.167,1.775,5.954L64.1,115.068l-1.725-5.787,4.414-13.99-.044.014-27.714,8.261,11.353,9.291L65.23,162.646l-4.414,13.989,27.714-8.262.044-.013-11.353-9.289L65.692,120.4,99,110.466l11.6,38.895-4.328,13.723,27.718-8.262Z" transform="translate(10.009 20.963)" fill="#fef8f0"/>
  <g id="Group_338" data-name="Group 338">
    <g id="Group_337" data-name="Group 337" clip-path="url(#clip-path)">
      <path id="Path_251" data-name="Path 251" d="M305.528,87.633c-.073-.187-12.436-41.5-12.436-41.5l-16.5,4.918.685,2.3.265.89,0,.013a5.368,5.368,0,0,1,6.595,2.393,31.081,31.081,0,0,1,2.809,7.221l2.175,7.3q3.164,10.609.775,17.741a14.129,14.129,0,0,1-10,9.4c-3.332.994-5.95.152-7.839-2.561q-1.491-2.054-3.39-8.458l-8.324-27.921-.651-2.184-.3-1.008L243.193,61l.686,2.3.265.891,0,.011q6.2-1.847,9.749,10.054.481,1.609,2.2,8.487,1.738,6.894,2.356,8.995c1.318,4.421,2.894,9.233,6.252,12.56,3.471,3.435,8.517,3.685,13.054,2.474,6.282-1.657,12.918-5.288,15.446-11.623.524-1.337,1.789-4.32,1.4-5.7V89.44l0,.006v-.008c.06.2.175.382.237.582l1.98,4.779.01.014,1.834,4.435,1.1-.328,4.655-1.388,9.586-2.858,1.308-.389s-8.939-5.723-9.789-6.651" transform="translate(62.358 11.828)" fill="#fef8f0"/>
      <path id="Path_252" data-name="Path 252" d="M216.824,115.211,191.084,95l11.06-3.259-2.922-9.625,9.661-2.889-1.549-5.2-17.968,5.357-12.833,20.5-9.961-33.412L145.612,76.8a2.306,2.306,0,0,0-1.206,2.675l1.137,4.173,7.809-2.327c2.8-.836,6.345-.634,7.458,3.1l12.285,41.21c.333,1.114.6,2.115.823,3.024l-3.527,11.18.372-.111,8.877-2.646,4.453-1.328,8.877-2.646.372-.111-9.091-7.438c-.309-.9-.632-1.9-.97-3.034l-3.037-10.19,5.522-8.825,19.888,15.67-2.6,10.922,3.023-.9,6.226-1.856,4.886-1.457,9.13-2.721.118-.035Z" transform="translate(37.007 17.046)" fill="#fef8f0"/>
      <path id="Path_253" data-name="Path 253" d="M257.466,101.621l-12.4-41.6L202.22,72.79,207.945,92l2.817-6.463c2.723-6.249,7.761-11.472,14.284-13.45l.148-.045q5.6-1.67,8.51-.139t4.577,7.133l.069.232.5,1.669q-8.914,5.164-13.49,7.726Q207.454,99.6,210.2,112.184a11.616,11.616,0,0,0,6.988,8.434q5.371,1.99,12.632-.178a28.076,28.076,0,0,0,11.215-6.228,17.852,17.852,0,0,0,5.581-9.488l2.635,8.836,17.948-5.35Zm-16.65-14.088q6.444,21.613-8.965,26.2a8.832,8.832,0,0,1-6.447-.256,7.152,7.152,0,0,1-3.86-4.73q-3.46-11.6,18.526-23.716Z" transform="translate(51.852 15.389)" fill="#fef8f0"/>
      <path id="Path_254" data-name="Path 254" d="M165.894,128.919l-12.4-41.6-42.848,12.774,5.725,19.206,2.817-6.463c2.723-6.249,7.761-11.472,14.284-13.45l.148-.045q5.6-1.67,8.51-.139t4.577,7.133l.069.232.5,1.669q-8.914,5.164-13.49,7.726-17.9,10.938-15.157,23.526a11.616,11.616,0,0,0,6.988,8.434q5.371,1.99,12.632-.178a28.077,28.077,0,0,0,11.215-6.228,17.853,17.853,0,0,0,5.581-9.488l2.635,8.836,17.948-5.35Zm-16.65-14.088q6.444,21.613-8.965,26.2a8.832,8.832,0,0,1-6.447-.256,7.15,7.15,0,0,1-3.86-4.73q-3.46-11.6,18.526-23.716Z" transform="translate(28.372 22.389)" fill="#fef8f0"/>
      <path id="Path_255" data-name="Path 255" d="M321.282,59.037a7.785,7.785,0,0,0,1.265-2.664l.167.015-.063,5.7L310.5,65.716l-.178-.6c4.558-8.384,6.3-13.935,5.237-17.507-.76-2.551-2.764-3.685-4.776-3.086-1.77.528-3.384,2.348-4.287,4.58l-.445-.064a11.007,11.007,0,0,1,1.925-4.4,6.62,6.62,0,0,1,3.45-2.566,5.2,5.2,0,0,1,6.53,3.708,10.641,10.641,0,0,1-.479,6.285,57.556,57.556,0,0,1-4.831,10.1l6.21-1.852a5.355,5.355,0,0,0,2.429-1.28" transform="translate(78.475 10.731)" fill="#fef8f0"/>
      <path id="Path_256" data-name="Path 256" d="M323.443,61.64a5.456,5.456,0,0,0,1.872-1.832,4.643,4.643,0,0,0-.284-2.594L321.14,44.159a1.959,1.959,0,0,0-1.1-1.4,7.028,7.028,0,0,0-2.747-.226l-.044-.15,5.272-3.794,5.306,17.8a5.024,5.024,0,0,0,1.153,2.334,5.872,5.872,0,0,0,2.6.5l.053.181L323.5,61.821Z" transform="translate(81.347 9.894)" fill="#fef8f0"/>
      <path id="Path_257" data-name="Path 257" d="M15.234,149.931a7.809,7.809,0,0,0,1.265-2.664l.167.015-.064,5.7L4.449,156.61l-.178-.6c4.558-8.384,6.3-13.935,5.237-17.507-.76-2.551-2.764-3.685-4.776-3.086-1.77.528-3.384,2.348-4.287,4.58L0,139.932a11.007,11.007,0,0,1,1.925-4.4,6.619,6.619,0,0,1,3.45-2.566,5.2,5.2,0,0,1,6.53,3.708,10.641,10.641,0,0,1-.479,6.285,57.492,57.492,0,0,1-4.832,10.1l6.212-1.852a5.362,5.362,0,0,0,2.429-1.28" transform="translate(0 34.037)" fill="#fef8f0"/>
      <path id="Path_258" data-name="Path 258" d="M17.77,149.7a14.153,14.153,0,0,1-4.406-7.214,14.114,14.114,0,0,1-.231-8.557c.812-2.431,2.218-3.961,4.228-4.561s4-.08,6.023,1.571a14.271,14.271,0,0,1,4.5,7.317,14.289,14.289,0,0,1,.286,8.409,6.34,6.34,0,0,1-4.277,4.509A6.429,6.429,0,0,1,17.77,149.7m8.2-2.838a19.669,19.669,0,0,0-1.028-7.829c-1.994-6.693-4.988-9.721-7.419-9s-3.239,4.919-1.261,11.55c2,6.692,4.94,9.669,7.432,8.927,1.29-.384,2.042-1.588,2.277-3.652" transform="translate(3.224 33.109)" fill="#fef8f0"/>
      <path id="Path_259" data-name="Path 259" d="M95.285,34.409A7.84,7.84,0,0,0,96.5,39.1a8.025,8.025,0,0,0,3.51,3.624,3.31,3.31,0,0,0,4.97-1.87,9.676,9.676,0,0,0,.632-2.96l.1-.055,1.13,2.8a12.877,12.877,0,0,1-3.219,2.615,6.206,6.206,0,0,1-4.923.68,6.84,6.84,0,0,1-3.975-3.494,7.273,7.273,0,0,1-.936-5.382,6.036,6.036,0,0,1,3.039-3.939,14.626,14.626,0,0,1,3.933-1.376l1.787,2.43-.1.055a9.835,9.835,0,0,0-2.86-1.033A3.765,3.765,0,0,0,97,31.534a3.556,3.556,0,0,0-1.715,2.875" transform="translate(24.003 7.625)" fill="#fef8f0"/>
      <path id="Path_260" data-name="Path 260" d="M113.91,37.791a6.032,6.032,0,0,1-5.027.3,7.1,7.1,0,0,1-3.83-3.72,7.024,7.024,0,0,1-.577-5.291A6.544,6.544,0,0,1,112.829,25a7.021,7.021,0,0,1,3.822,3.7,7.1,7.1,0,0,1,.583,5.308,6.035,6.035,0,0,1-3.324,3.782m1.965-3.221a6.944,6.944,0,0,0-.8-4.156,10.95,10.95,0,0,0-3.139-3.85,4.008,4.008,0,0,0-4.228-.676,3.354,3.354,0,0,0-1.883,2.659,6.874,6.874,0,0,0,.805,4.131,9.025,9.025,0,0,0,4.555,4.6A3.432,3.432,0,0,0,114,37.2a3.331,3.331,0,0,0,1.875-2.633" transform="translate(26.717 6.304)" fill="#fef8f0"/>
      <path id="Path_261" data-name="Path 261" d="M126.5,17.908a4.044,4.044,0,0,0-.921.962,1.586,1.586,0,0,0-.116,1.029,9.939,9.939,0,0,0,.646,1.914l3.856,9.114-1.387.587-11.195-7.582,3.034,7.174c.726,1.715,1.187,2.275,1.743,2.429a4.06,4.06,0,0,0,1.332.009l.044.1-3.968,1.679-.044-.1c.952-.792,1.176-1.131,1.044-1.974a8.751,8.751,0,0,0-.636-1.937L116.672,23.6a3.788,3.788,0,0,0-2.248-.58l-.044-.1,3.051-1.29,11.242,7.644-3.064-7.243c-.726-1.715-1.187-2.275-1.743-2.429a4.069,4.069,0,0,0-1.332-.008l-.044-.1,3.968-1.679Z" transform="translate(29.329 4.565)" fill="#fef8f0"/>
      <path id="Path_262" data-name="Path 262" d="M140.064,23.373l.7,3.23-9.352,3.41-.039-.106c1.271-1.126,1.28-1.048.793-2.713l-2.971-8.15c-.7-1.587-.655-1.523-2.353-1.565l-.038-.106,8.732-3.184,1.388,2.818-.124.045a4.543,4.543,0,0,0-1.763-1.32,2.953,2.953,0,0,0-2.292-.025l-2.28.832,1.9,5.214,2.263-.824a2.357,2.357,0,0,0,1.548-1.907l.088-.031,1.077,2.953-.088.031a2.408,2.408,0,0,0-2.47-.621l-2.25.859,1.935,5.3c.153.425,1.142.445,2.627-.1l.867-.317a2.485,2.485,0,0,0,1.442-1.426,6.487,6.487,0,0,0,.555-2.267Z" transform="translate(32.514 3.639)" fill="#fef8f0"/>
      <path id="Path_263" data-name="Path 263" d="M141.218,14.138a7.846,7.846,0,0,0,.234,4.84,8.04,8.04,0,0,0,2.7,4.264,3.314,3.314,0,0,0,5.249-.815,9.761,9.761,0,0,0,1.223-2.77l.108-.034.535,2.969a12.892,12.892,0,0,1-3.685,1.9,6.212,6.212,0,0,1-4.959-.339,6.853,6.853,0,0,1-3.18-4.233,7.272,7.272,0,0,1,.182-5.463,6.041,6.041,0,0,1,3.781-3.235,14.56,14.56,0,0,1,4.13-.544l1.255,2.744-.109.034a9.8,9.8,0,0,0-2.589-1.6,3.762,3.762,0,0,0-2.606-.19,3.557,3.557,0,0,0-2.265,2.465" transform="translate(35.642 2.739)" fill="#fef8f0"/>
      <path id="Path_264" data-name="Path 264" d="M161.146,9.912l-.109.029a3.587,3.587,0,0,0-3.912-1.719l-1.038.273,2.685,10.25a3.019,3.019,0,0,0,.645,1.426,3.287,3.287,0,0,0,1.534.357l.028.109L155.771,22l-.029-.111a3.25,3.25,0,0,0,1.161-1.063,2.783,2.783,0,0,0-.117-1.564L154.1,9.014l-1.093.286a3.588,3.588,0,0,0-2.568,3.415l-.109.029-.464-3.108,10.159-2.66Z" transform="translate(38.428 1.789)" fill="#fef8f0"/>
      <path id="Path_265" data-name="Path 265" d="M173.986,16.769a3.392,3.392,0,0,0,1.282.324l.024.111-5.263,1.121L170,18.214c1.088-.673,1.391-.97,1.3-1.411a3.173,3.173,0,0,0-.441-.887l-1.4-2.24-4.619.984-.1.695a9.757,9.757,0,0,0-.178,2.6c.141.662.612.888,1.817,1.037l.024.111-3.919.834-.024-.109a4.693,4.693,0,0,0,1.151-1.554,11.113,11.113,0,0,0,.6-2.686l1.179-8.273-.759-.954a8.794,8.794,0,0,0,1.553-1.371l7.035,10.889a3.368,3.368,0,0,0,.768.895m-4.954-3.753L165.793,7.84l-.847,6.047Z" transform="translate(41.657 1.278)" fill="#fef8f0"/>
      <path id="Path_266" data-name="Path 266" d="M188.173,2.792a2.91,2.91,0,0,0-.033,1.547l1.3,8.574a3.039,3.039,0,0,0,.491,1.486,3.534,3.534,0,0,0,1.506.514l.016.112-5.318.807-.019-.112a3.279,3.279,0,0,0,1.266-.934,2.767,2.767,0,0,0,.048-1.568L186.05,4.1l-.038.005c-1.725,4.81-2.846,8.081-3.368,9.779l-.26.04c-2.307-3.171-4.414-5.9-6.3-8.142l1.181,7.794c.279,1.842.588,2.5,1.088,2.784a4.085,4.085,0,0,0,1.289.338l.016.111-4.24.643-.019-.111c1.121-.531,1.42-.805,1.5-1.655a8.651,8.651,0,0,0-.136-2.034L175.5,5.322a4.117,4.117,0,0,0-2.045-1.06l-.016-.112,3.572-.542c2.177,2.7,4.149,5.29,5.876,7.767l3.2-9.143,3.348-.509.019.113a3.25,3.25,0,0,0-1.283.955" transform="translate(44.473 0.442)" fill="#fef8f0"/>
      <path id="Path_267" data-name="Path 267" d="M196.715,14.621a6.033,6.033,0,0,1-4.8-1.516,7.1,7.1,0,0,1-2.246-4.845,7.016,7.016,0,0,1,1.354-5.145,6.543,6.543,0,0,1,9.259-.827,7.017,7.017,0,0,1,2.245,4.825,7.1,7.1,0,0,1-1.353,5.165,6.034,6.034,0,0,1-4.458,2.343m2.988-2.307a6.939,6.939,0,0,0,.743-4.165,10.922,10.922,0,0,0-1.555-4.717,4.007,4.007,0,0,0-3.705-2.145,3.357,3.357,0,0,0-2.709,1.81,6.874,6.874,0,0,0-.726,4.145,9.019,9.019,0,0,0,2.607,5.927,3.435,3.435,0,0,0,2.652.935,3.33,3.33,0,0,0,2.694-1.79" transform="translate(48.624 0.19)" fill="#fef8f0"/>
      <path id="Path_268" data-name="Path 268" d="M203.714,12.8l-.339-3.152.132,0a7.2,7.2,0,0,0,2.525,3.186,3.048,3.048,0,0,0,1.866.573,2.287,2.287,0,0,0,2.3-2.456A2.853,2.853,0,0,0,209.54,9.3a3.143,3.143,0,0,0-.737-.632c-.348-.234-.6-.412-.771-.5l-.922-.5a13.955,13.955,0,0,1-2.817-1.857,3.177,3.177,0,0,1-.908-2.228,3.108,3.108,0,0,1,1.02-2.54A4.123,4.123,0,0,1,207.117,0a8.785,8.785,0,0,1,3.412.65l.486,3.015-.132.005a8.5,8.5,0,0,0-1.7-2.274A2.932,2.932,0,0,0,207.02.46a2.082,2.082,0,0,0-2.047,2.3,1.986,1.986,0,0,0,.637,1.484,14.706,14.706,0,0,0,2.39,1.5c.5.264.846.46,1.039.584.21.106.5.284.885.534a3.378,3.378,0,0,1,.813.629,4.067,4.067,0,0,1,1,1.547,4.236,4.236,0,0,1,.148,1.011A3.354,3.354,0,0,1,210.8,12.85a4.44,4.44,0,0,1-2.788,1.04,8.973,8.973,0,0,1-4.3-1.088" transform="translate(52.148 0)" fill="#fef8f0"/>
      <path id="Path_269" data-name="Path 269" d="M167.176,156.364a6.2,6.2,0,0,1,3.172,3.985,7.08,7.08,0,0,1-.33,5.283,6.242,6.242,0,0,1-4.036,3.265l-5.483,1.635-.033-.107c1.338-1.048,1.341-.97.955-2.662l-2.479-8.316c-.6-1.627-.564-1.56-2.257-1.7l-.033-.108,4.655-1.387a7.883,7.883,0,0,1,5.867.116m1.264,9.444a7.945,7.945,0,0,0-.176-4.74c-1.135-3.807-3.412-5.385-6.894-4.347l-1.01.3,3.34,11.2c.113.378.882.523,2.037.178l.019-.005a3.754,3.754,0,0,0,2.685-2.588" transform="translate(40.168 39.937)" fill="#fef8f0"/>
      <path id="Path_270" data-name="Path 270" d="M181.4,161.043l.5,3.268-9.544,2.845-.031-.108c1.337-1.047,1.341-.969.954-2.661L170.8,156.07c-.6-1.627-.563-1.56-2.255-1.7l-.033-.108,8.91-2.656,1.219,2.9-.127.038a4.57,4.57,0,0,0-1.681-1.424,2.955,2.955,0,0,0-2.288-.162l-2.327.694,1.586,5.322,2.309-.689a2.357,2.357,0,0,0,1.661-1.812l.089-.026.9,3.012-.09.028a2.413,2.413,0,0,0-2.429-.769l-2.3.725,1.613,5.411c.128.433,1.114.513,2.63.06l.885-.264A2.486,2.486,0,0,0,180.6,163.3a6.466,6.466,0,0,0,.691-2.229Z" transform="translate(43.209 38.873)" fill="#fef8f0"/>
      <path id="Path_271" data-name="Path 271" d="M183.482,162.521l-1.119-2.966.126-.038a7.162,7.162,0,0,0,3.244,2.45,3.043,3.043,0,0,0,1.951.087A2.286,2.286,0,0,0,189.3,159.1a2.84,2.84,0,0,0-1.054-1.434,3.145,3.145,0,0,0-.874-.427c-.395-.138-.682-.249-.872-.29l-1.018-.246a14.062,14.062,0,0,1-3.193-1.092,3.18,3.18,0,0,1-1.437-1.927,3.107,3.107,0,0,1,.349-2.716,4.119,4.119,0,0,1,2.363-1.687,8.754,8.754,0,0,1,3.466-.229l1.229,2.8-.127.038a8.491,8.491,0,0,0-2.218-1.774,2.919,2.919,0,0,0-2.329-.367,2.08,2.08,0,0,0-1.4,2.736,1.986,1.986,0,0,0,.991,1.277,14.719,14.719,0,0,0,2.686.848q.827.2,1.153.305c.23.049.554.149.99.294a3.4,3.4,0,0,1,.946.406,3.39,3.39,0,0,1,1.751,2.187,3.357,3.357,0,0,1-.344,2.992,4.45,4.45,0,0,1-2.437,1.707,8.969,8.969,0,0,1-4.431.025" transform="translate(46.331 38.2)" fill="#fef8f0"/>
      <path id="Path_272" data-name="Path 272" d="M199.7,146.667a6.2,6.2,0,0,1,3.172,3.985,7.08,7.08,0,0,1-.33,5.283,6.242,6.242,0,0,1-4.036,3.265l-5.483,1.635-.033-.107c1.338-1.048,1.341-.97.955-2.662l-2.479-8.316c-.6-1.627-.564-1.56-2.257-1.7l-.033-.108,4.655-1.387a7.883,7.883,0,0,1,5.867.116m1.264,9.444a7.945,7.945,0,0,0-.176-4.74c-1.135-3.807-3.412-5.385-6.894-4.347l-1.01.3,3.34,11.2c.113.378.882.523,2.037.178l.019-.005a3.754,3.754,0,0,0,2.685-2.588" transform="translate(48.509 37.45)" fill="#fef8f0"/>
      <path id="Path_273" data-name="Path 273" d="M213.924,151.346l.5,3.268-9.544,2.845-.031-.108c1.337-1.047,1.341-.969.954-2.661l-2.479-8.316c-.6-1.627-.563-1.56-2.255-1.7l-.033-.108,8.91-2.656,1.219,2.9-.127.038a4.57,4.57,0,0,0-1.681-1.424,2.955,2.955,0,0,0-2.288-.162l-2.327.694,1.586,5.322,2.309-.689a2.357,2.357,0,0,0,1.661-1.812l.089-.026.9,3.012-.09.028a2.413,2.413,0,0,0-2.429-.769l-2.3.725,1.613,5.411c.128.433,1.114.513,2.63.06l.884-.264a2.486,2.486,0,0,0,1.525-1.338,6.465,6.465,0,0,0,.691-2.229Z" transform="translate(51.55 36.387)" fill="#fef8f0"/>
      <path id="Path_274" data-name="Path 274" d="M149.949,188.654l.5,3.268-9.544,2.845-.031-.108c1.337-1.047,1.341-.969.954-2.661l-2.479-8.316c-.6-1.627-.563-1.56-2.255-1.7l-.033-.108,8.911-2.656,1.219,2.9-.127.038a4.57,4.57,0,0,0-1.681-1.424,2.955,2.955,0,0,0-2.288-.162l-2.327.694,1.586,5.322,2.309-.689a2.357,2.357,0,0,0,1.661-1.812l.089-.026.9,3.012-.09.028a2.41,2.41,0,0,0-2.429-.769l-2.3.725,1.613,5.411c.128.433,1.114.513,2.63.06l.885-.264a2.486,2.486,0,0,0,1.525-1.338,6.465,6.465,0,0,0,.691-2.229Z" transform="translate(35.145 45.953)" fill="#fef8f0"/>
      <path id="Path_275" data-name="Path 275" d="M160.639,185.24l.5,3.268-9.308,2.775-.033-.108c1.338-1.048,1.341-.97.956-2.662l-2.48-8.316c-.6-1.627-.564-1.56-2.257-1.7l-.031-.108,5.176-1.543.033.108c-1.338,1.047-1.342.969-.955,2.661l2.791,9.363c.131.432,1.116.511,2.631.059l.631-.187a2.544,2.544,0,0,0,1.537-1.3,6.037,6.037,0,0,0,.7-2.27Z" transform="translate(37.946 45.345)" fill="#fef8f0"/>
      <path id="Path_276" data-name="Path 276" d="M167.644,174.615a7.841,7.841,0,0,0,.166,4.841,8.021,8.021,0,0,0,2.637,4.3,3.311,3.311,0,0,0,5.259-.743,9.7,9.7,0,0,0,1.261-2.753l.108-.031.494,2.975a12.914,12.914,0,0,1-3.709,1.853,6.214,6.214,0,0,1-4.954-.41,6.845,6.845,0,0,1-3.121-4.276,7.266,7.266,0,0,1,.259-5.458,6.03,6.03,0,0,1,3.823-3.182,14.542,14.542,0,0,1,4.137-.487l1.216,2.76-.108.033a9.853,9.853,0,0,0-2.569-1.631,3.751,3.751,0,0,0-2.6-.226,3.552,3.552,0,0,0-2.3,2.434" transform="translate(42.407 43.91)" fill="#fef8f0"/>
      <path id="Path_277" data-name="Path 277" d="M185.2,181.646a6.038,6.038,0,0,1-5.009-.53,7.087,7.087,0,0,1-3.167-4.3,7.015,7.015,0,0,1,.3-5.315,6.544,6.544,0,0,1,8.912-2.656,7.014,7.014,0,0,1,3.161,4.282,7.1,7.1,0,0,1-.3,5.332,6.037,6.037,0,0,1-3.9,3.186m2.468-2.857a6.948,6.948,0,0,0-.1-4.232,10.921,10.921,0,0,0-2.465-4.313,4.008,4.008,0,0,0-4.058-1.363,3.361,3.361,0,0,0-2.3,2.314,6.885,6.885,0,0,0,.116,4.209,9.028,9.028,0,0,0,3.738,5.29,3.435,3.435,0,0,0,2.785.387,3.335,3.335,0,0,0,2.284-2.292" transform="translate(45.296 43.079)" fill="#fef8f0"/>
      <path id="Path_278" data-name="Path 278" d="M203.151,175.949l.033.108-2.724.812c-2.137-1.7-4.179-3.41-6.077-5.1l-1.127.376,1.2,4.022c.6,1.628.563,1.56,2.257,1.7l.031.108-5.176,1.543-.033-.108c1.338-1.048,1.341-.969.955-2.662l-2.479-8.315c-.6-1.627-.564-1.562-2.257-1.7l-.031-.107,5.284-1.576c3.013-.9,5.072-.118,5.6,1.669a3.042,3.042,0,0,1-.293,2.444,4.558,4.558,0,0,1-2.019,1.858c1.52,1.275,3.164,2.573,4.919,3.916a7.555,7.555,0,0,0,1.932,1.015m-10.035-4.277,1.623-.484a2.737,2.737,0,0,0,1.949-3.743c-.564-1.895-1.941-2.427-3.763-1.883l-1.5.446Z" transform="translate(48.135 42.225)" fill="#fef8f0"/>
      <path id="Path_279" data-name="Path 279" d="M213.606,172.064a3.371,3.371,0,0,0,1.3.221l.033.108-5.159,1.538-.033-.108c1.032-.76,1.309-1.078,1.181-1.51a3.166,3.166,0,0,0-.51-.851l-1.576-2.123-4.528,1.349-.045.7a9.724,9.724,0,0,0,.029,2.6c.193.651.682.839,1.9.89l.031.108-3.842,1.146-.033-.108a4.694,4.694,0,0,0,1.024-1.641,11.146,11.146,0,0,0,.384-2.728l.519-8.345-.836-.891a8.79,8.79,0,0,0,1.441-1.49l7.883,10.3a3.35,3.35,0,0,0,.837.831m-5.241-3.348-3.642-4.905-.363,6.1Z" transform="translate(51.887 41.266)" fill="#fef8f0"/>
      <path id="Path_280" data-name="Path 280" d="M224.167,166.506l.5,3.268-9.074,2.705-.08-.27,3.459-14.29-3.228.962a2.958,2.958,0,0,0-1.827,1.39,4.561,4.561,0,0,0-.627,2.112l-.127.038-.567-3.092,8.55-2.548.08.27-3.483,14.277,4.077-1.215a2.546,2.546,0,0,0,1.532-1.321,6.483,6.483,0,0,0,.7-2.253Z" transform="translate(54.514 40.201)" fill="#fef8f0"/>
      <path id="Path_281" data-name="Path 281" d="M231.911,168.5a6.039,6.039,0,0,1-5.009-.53,7.1,7.1,0,0,1-3.167-4.3,7.015,7.015,0,0,1,.3-5.315,6.542,6.542,0,0,1,8.911-2.657,7.019,7.019,0,0,1,3.162,4.283,7.091,7.091,0,0,1-.3,5.332,6.042,6.042,0,0,1-3.9,3.186m2.469-2.857a6.952,6.952,0,0,0-.1-4.233,10.945,10.945,0,0,0-2.465-4.313,4.011,4.011,0,0,0-4.059-1.363,3.359,3.359,0,0,0-2.3,2.316,6.884,6.884,0,0,0,.114,4.209,9.026,9.026,0,0,0,3.738,5.288,3.429,3.429,0,0,0,2.787.387,3.333,3.333,0,0,0,2.284-2.29m-7.452-10.96c-.062-.668-.172-1.7-.356-3.037l1.966-.587c-.5,1.367-.969,2.548-1.43,3.569Z" transform="translate(57.273 38.733)" fill="#fef8f0"/>
      <path id="Path_282" data-name="Path 282" d="M246.923,149.459a4.075,4.075,0,0,0-1.021.854,1.587,1.587,0,0,0-.229,1.011,9.9,9.9,0,0,0,.43,1.973l2.829,9.49-1.444.43-10.3-8.775,2.226,7.468c.533,1.785.931,2.393,1.465,2.608a4.084,4.084,0,0,0,1.324.156l.031.108-4.131,1.231-.031-.108c1.034-.682,1.294-1,1.255-1.848a8.738,8.738,0,0,0-.417-2l-2.393-8.028a3.8,3.8,0,0,0-2.171-.825l-.033-.108,3.175-.946,10.335,8.841-2.248-7.541c-.531-1.785-.93-2.393-1.465-2.607a4.07,4.07,0,0,0-1.323-.156l-.031-.108,4.13-1.231Z" transform="translate(60.083 38.296)" fill="#fef8f0"/>
    </g>
  </g>
</svg>
