<svg xmlns="http://www.w3.org/2000/svg" xmlns:xlink="http://www.w3.org/1999/xlink" width="596.378" height="36.348" viewBox="0 0 596.378 36.348">
  <defs>
    <clipPath id="clip-path">
      <rect id="Rectangle_247" data-name="Rectangle 247" width="596.378" height="36.348" fill="none"/>
    </clipPath>
  </defs>
  <g id="Group_332" data-name="Group 332" transform="translate(0 0)">
    <line id="Line_120" data-name="Line 120" x2="570.652" transform="translate(12.863 18.174)" fill="none" stroke="#fef8f0" stroke-miterlimit="10" stroke-width="1.588"/>
    <g id="Group_331" data-name="Group 331" transform="translate(0 -0.001)">
      <g id="Group_330" data-name="Group 330" clip-path="url(#clip-path)">
        <path id="Path_242" data-name="Path 242" d="M560.09,35.779a17.393,17.393,0,1,1,17.471-17.314A17.393,17.393,0,0,1,560.09,35.779Z" transform="translate(-116.205 -0.212)" fill="none" stroke="#fef8f0" stroke-miterlimit="10" stroke-width="1.988"/>
        <path id="Path_243" data-name="Path 243" d="M564.825,33.506a14.268,14.268,0,1,0,.128-28.536Z" transform="translate(-120.926 -1.064)" fill="#fef8f0"/>
        <circle id="Ellipse_5" data-name="Ellipse 5" cx="17.393" cy="17.393" r="17.393" transform="matrix(1, -0.02, 0.02, 1, 285.454, 1.132)" fill="none" stroke="#fef8f0" stroke-miterlimit="10" stroke-width="1.988"/>
        <path id="Path_244" data-name="Path 244" d="M396.168,19.238a14.268,14.268,0,1,0-28.536,0Z" transform="translate(-78.708 -1.064)" fill="#fef8f0"/>
        <path id="Path_245" data-name="Path 245" d="M367.632,23.125a14.268,14.268,0,1,0,28.535,0Z" transform="translate(-78.708 -4.951)" fill="#fef8f0"/>
        <path id="Path_246" data-name="Path 246" d="M196.549,35.779a17.393,17.393,0,1,1,17.29-17.494A17.392,17.392,0,0,1,196.549,35.779Z" transform="translate(-38.335 -0.212)" fill="none" stroke="#fef8f0" stroke-miterlimit="10" stroke-width="1.988"/>
        <path id="Path_247" data-name="Path 247" d="M197.214,4.97a14.268,14.268,0,0,0,.167,28.536Z" transform="translate(-39.186 -1.064)" fill="#fef8f0"/>
        <path id="Path_248" data-name="Path 248" d="M754.713,21.458a6.119,6.119,0,1,1-6.119-6.119A6.119,6.119,0,0,1,754.713,21.458Z" transform="translate(-158.96 -3.284)" fill="none" stroke="#fef8f0" stroke-miterlimit="10" stroke-width="1.588"/>
        <path id="Path_249" data-name="Path 249" d="M13.033,21.458a6.119,6.119,0,1,1-6.119-6.119A6.119,6.119,0,0,1,13.033,21.458Z" transform="translate(-0.17 -3.284)" fill="none" stroke="#fef8f0" stroke-miterlimit="10" stroke-width="1.588"/>
      </g>
    </g>
  </g>
</svg>
